<?xml version="1.0" standalone="no"?>
<!DOCTYPE svg PUBLIC "-//W3C//DTD SVG 20010904//EN"
 "http://www.w3.org/TR/2001/REC-SVG-20010904/DTD/svg10.dtd">
<svg version="1.0" xmlns="http://www.w3.org/2000/svg"
 width="512" height="512" viewBox="490 80 820 820"
 preserveAspectRatio="xMidYMid meet">
<g transform="translate(0.000000,981.000000) scale(0.100000,-0.100000)"
fill="#000000" stroke="none">
<path d="M8665 8585 c-44 -8 -105 -14 -135 -14 -30 -1 -77 -8 -104 -16 -27 -8
-67 -15 -88 -15 -21 0 -55 -7 -75 -15 -19 -8 -49 -15 -65 -15 -16 0 -38 -5
-49 -11 -11 -6 -41 -14 -67 -19 -26 -4 -60 -12 -77 -18 -16 -6 -46 -15 -65
-22 -19 -7 -52 -15 -73 -20 -21 -4 -44 -13 -50 -19 -6 -6 -20 -11 -30 -11 -10
0 -31 -6 -45 -14 -15 -8 -47 -22 -72 -31 -109 -42 -363 -165 -448 -217 -34
-21 -64 -38 -67 -38 -16 0 -457 -316 -475 -340 -3 -4 -43 -40 -89 -80 -117
-100 -274 -259 -368 -371 -89 -107 -233 -295 -233 -305 0 -3 -13 -23 -30 -44
-16 -21 -30 -43 -30 -49 0 -6 -5 -11 -10 -11 -6 0 -15 -10 -20 -22 -6 -13 -19
-36 -30 -53 -11 -16 -24 -39 -30 -50 -6 -11 -26 -47 -45 -80 -66 -113 -225
-445 -225 -468 0 -7 -7 -22 -15 -33 -8 -10 -15 -27 -15 -37 0 -11 -6 -31 -14
-45 -15 -30 -33 -81 -46 -127 -5 -16 -13 -43 -18 -60 -10 -28 -21 -65 -56
-195 -27 -102 -37 -145 -46 -210 -5 -36 -14 -81 -20 -100 -5 -19 -10 -60 -10
-90 0 -30 -7 -84 -16 -120 -13 -53 -16 -134 -16 -440 -1 -383 -1 -385 43 -660
6 -36 14 -92 18 -125 5 -34 13 -70 19 -82 7 -12 12 -35 12 -52 0 -16 5 -42 11
-58 7 -15 15 -46 19 -68 4 -22 13 -55 19 -72 6 -18 16 -48 22 -65 6 -18 14
-50 19 -71 4 -21 13 -44 19 -50 6 -6 11 -23 11 -38 0 -15 4 -30 10 -34 5 -3
14 -20 19 -38 16 -53 41 -118 67 -176 37 -82 153 -311 175 -346 10 -16 23 -39
29 -50 17 -35 187 -288 219 -327 23 -29 89 -108 131 -159 77 -92 270 -287 375
-378 91 -79 378 -301 389 -301 3 0 33 -19 68 -43 87 -57 100 -65 123 -77 11
-6 47 -26 80 -45 95 -53 292 -148 375 -180 25 -10 59 -24 77 -31 17 -8 37 -14
45 -14 7 0 22 -7 32 -15 11 -8 28 -15 38 -15 9 0 32 -6 50 -14 33 -14 83 -29
188 -59 111 -32 146 -40 190 -48 25 -4 72 -12 105 -18 33 -7 85 -17 115 -23
30 -5 96 -14 145 -18 50 -4 146 -13 215 -20 196 -20 579 -4 760 32 30 5 82 14
115 18 58 8 101 16 195 40 25 6 63 15 85 20 22 4 54 13 70 18 17 6 57 18 90
28 33 9 75 23 93 30 18 8 40 14 48 14 9 0 28 6 42 14 42 21 102 46 112 46 15
0 332 150 423 200 9 6 25 14 35 19 9 6 48 29 85 53 37 24 76 48 85 53 20 12
73 47 87 57 6 4 57 42 115 85 201 147 418 346 569 522 40 46 77 89 84 96 26
26 192 249 224 300 138 220 226 385 309 582 9 21 23 51 30 66 8 16 14 35 14
42 0 7 6 26 14 42 15 30 33 80 46 128 8 29 16 55 41 128 6 17 15 50 19 72 8
43 25 116 43 180 6 22 14 67 18 100 4 33 12 80 18 105 35 156 45 296 45 685 0
281 -4 408 -14 455 -7 36 -16 94 -20 130 -8 68 -24 158 -41 225 -6 22 -14 63
-19 91 -4 28 -13 61 -19 72 -6 11 -11 31 -11 44 0 13 -7 36 -15 52 -8 15 -15
38 -15 50 0 11 -7 34 -15 50 -8 15 -15 38 -15 50 0 11 -7 30 -15 40 -8 11 -15
30 -15 42 0 12 -6 35 -14 51 -8 15 -22 48 -31 73 -18 45 -22 56 -71 165 -27
61 -128 268 -144 295 -121 207 -256 413 -305 466 -14 15 -25 31 -25 35 0 5 -8
17 -17 27 -10 10 -47 54 -83 97 -165 204 -398 425 -625 593 -60 45 -115 86
-122 92 -7 5 -17 10 -23 10 -5 0 -10 5 -10 10 0 6 -10 15 -22 20 -13 6 -35 18
-50 28 -142 92 -415 242 -442 242 -8 0 -19 7 -26 15 -7 8 -19 15 -28 15 -8 0
-40 12 -71 26 -30 15 -67 30 -81 35 -14 4 -50 17 -80 29 -30 12 -68 25 -85 30
-16 5 -46 14 -65 20 -93 33 -117 40 -138 40 -13 0 -33 5 -44 11 -12 7 -47 15
-77 20 -31 4 -74 12 -96 18 -77 19 -161 33 -255 42 -52 4 -122 13 -155 19 -85
14 -522 11 -620 -5z m725 -120 c58 -9 130 -21 160 -27 30 -5 78 -14 105 -18
82 -13 168 -32 208 -46 20 -8 46 -14 56 -14 10 0 32 -7 47 -15 16 -8 36 -15
44 -15 8 0 47 -12 85 -26 39 -14 81 -28 95 -31 14 -3 34 -12 45 -19 11 -8 25
-14 32 -14 31 0 404 -186 488 -243 22 -15 45 -27 51 -27 7 0 14 -3 16 -7 4 -9
65 -53 73 -53 3 0 29 -18 58 -39 29 -22 73 -54 99 -73 136 -97 231 -180 398
-348 144 -144 214 -225 315 -361 117 -156 169 -229 200 -281 5 -10 33 -55 60
-100 47 -77 167 -313 212 -418 11 -25 27 -62 36 -83 9 -21 17 -42 17 -48 0 -6
6 -25 13 -42 22 -51 38 -99 48 -142 6 -22 14 -44 20 -49 5 -6 9 -18 9 -28 0
-9 7 -39 15 -65 50 -159 72 -266 122 -583 15 -96 18 -177 17 -500 0 -264 -4
-402 -12 -440 -7 -30 -16 -91 -21 -135 -11 -98 -29 -199 -43 -245 -7 -19 -15
-53 -19 -75 -17 -87 -37 -162 -48 -183 -6 -11 -11 -29 -11 -40 0 -11 -7 -33
-15 -48 -8 -16 -15 -39 -15 -51 0 -12 -4 -24 -9 -27 -5 -3 -12 -21 -15 -40 -4
-20 -13 -48 -21 -63 -8 -15 -15 -33 -15 -40 0 -6 -6 -24 -14 -40 -8 -15 -21
-44 -30 -63 -26 -60 -146 -303 -174 -351 -76 -131 -232 -359 -280 -408 -7 -8
-32 -39 -54 -68 -58 -79 -298 -323 -403 -410 -49 -42 -99 -83 -110 -92 -42
-34 -184 -141 -189 -141 -5 0 -105 -64 -121 -78 -5 -4 -17 -11 -25 -15 -8 -4
-28 -16 -45 -27 -16 -11 -41 -25 -55 -30 -13 -6 -27 -14 -30 -18 -3 -4 -63
-35 -135 -70 -123 -60 -150 -73 -235 -109 -19 -8 -48 -21 -65 -29 -16 -7 -42
-16 -58 -20 -15 -3 -30 -10 -33 -15 -3 -5 -14 -9 -26 -9 -11 0 -34 -6 -51 -13
-18 -8 -59 -22 -92 -32 -33 -9 -78 -23 -100 -31 -23 -8 -51 -14 -63 -14 -12 0
-39 -6 -59 -14 -66 -24 -296 -64 -428 -76 -385 -33 -422 -33 -644 -16 -119 9
-252 23 -296 31 -44 8 -91 15 -105 15 -26 0 -131 22 -214 46 -26 8 -61 14 -77
14 -15 0 -30 4 -33 9 -3 5 -23 12 -43 16 -69 13 -347 110 -405 141 -14 8 -35
14 -46 14 -11 0 -25 7 -32 15 -7 8 -18 15 -25 15 -13 0 -31 8 -115 51 -119 62
-157 82 -185 100 -16 10 -39 23 -50 28 -11 5 -37 21 -58 35 -21 14 -40 26 -44
26 -3 0 -22 13 -43 30 -21 16 -41 30 -44 30 -7 0 -181 130 -231 173 -16 14
-52 44 -80 67 -73 61 -270 255 -346 341 -109 122 -283 362 -365 504 -48 83
-51 88 -78 140 -15 28 -30 57 -35 65 -16 28 -69 145 -90 200 -12 30 -26 64
-30 75 -25 59 -34 84 -65 178 -19 56 -37 119 -41 140 -4 20 -11 40 -16 43 -5
3 -9 17 -9 31 0 15 -6 49 -14 77 -25 88 -37 140 -42 171 -3 17 -11 68 -19 115
-41 243 -48 342 -48 666 1 189 5 343 12 375 6 30 15 95 21 144 13 117 35 249
43 262 3 5 11 34 16 64 9 50 22 102 52 219 6 25 15 53 20 62 5 10 13 34 18 55
14 59 56 174 77 215 8 14 14 33 14 41 0 9 6 28 14 44 8 15 21 44 30 63 28 65
118 245 137 275 10 17 21 36 24 43 3 6 7 18 10 25 3 6 14 26 25 42 11 17 24
39 29 50 8 18 38 63 152 230 18 28 41 59 50 70 9 11 56 70 104 130 72 89 164
191 271 299 64 64 148 137 239 210 61 48 120 96 133 107 12 10 25 19 28 19 3
0 32 20 64 45 32 25 61 45 64 45 2 0 33 19 68 43 35 24 70 46 78 50 8 4 29 16
45 26 45 29 290 151 302 151 6 0 16 7 23 15 7 8 21 15 30 15 10 0 32 7 49 15
17 8 45 22 62 30 17 8 35 15 41 15 5 0 24 6 41 14 18 8 57 22 87 31 30 9 69
21 85 27 17 5 46 14 65 18 19 5 55 14 80 21 150 39 222 53 360 70 41 5 95 13
120 18 82 16 642 13 760 -4z"/>
<path d="M8760 8380 c-36 -4 -119 -13 -185 -20 -65 -6 -127 -16 -136 -21 -10
-5 -35 -9 -57 -9 -22 0 -62 -6 -88 -14 -47 -14 -95 -25 -193 -46 -24 -6 -49
-14 -55 -19 -6 -5 -24 -11 -41 -14 -16 -2 -46 -10 -65 -17 -19 -7 -53 -19 -75
-27 -22 -8 -53 -21 -68 -29 -16 -8 -33 -14 -39 -14 -11 0 -41 -13 -173 -75
-49 -23 -101 -47 -115 -53 -14 -6 -47 -25 -75 -41 -27 -17 -59 -35 -70 -41
-11 -6 -33 -19 -50 -30 -16 -11 -37 -23 -45 -27 -8 -3 -31 -19 -51 -35 -20
-15 -41 -28 -47 -28 -5 0 -25 -13 -43 -30 -19 -16 -37 -30 -40 -30 -7 0 -181
-128 -189 -139 -3 -4 -52 -47 -110 -97 -204 -177 -491 -510 -605 -702 -5 -9
-13 -19 -16 -22 -27 -24 -229 -396 -274 -505 -9 -22 -22 -53 -30 -70 -7 -16
-21 -50 -30 -75 -9 -25 -23 -60 -31 -78 -8 -18 -14 -39 -14 -46 0 -8 -7 -27
-15 -42 -8 -16 -15 -36 -15 -45 0 -9 -7 -30 -15 -45 -8 -16 -15 -40 -15 -54 0
-15 -5 -31 -10 -36 -6 -6 -14 -33 -19 -60 -9 -54 -26 -124 -47 -198 -8 -26
-14 -65 -14 -86 0 -22 -5 -51 -11 -67 -5 -15 -14 -70 -19 -123 -5 -52 -14
-126 -19 -165 -6 -38 -10 -198 -11 -355 0 -275 7 -377 41 -590 6 -36 14 -90
19 -121 4 -30 12 -71 18 -90 14 -46 33 -126 42 -174 4 -22 12 -51 17 -65 6
-14 18 -52 28 -85 9 -33 23 -75 31 -93 8 -18 14 -40 14 -48 0 -9 6 -28 14 -42
8 -15 22 -47 31 -72 22 -57 45 -111 57 -130 4 -8 11 -22 14 -30 11 -29 76
-155 110 -215 19 -33 39 -69 45 -80 37 -73 226 -347 258 -375 3 -3 24 -27 46
-55 63 -79 251 -269 360 -364 112 -97 299 -241 314 -241 5 0 11 -3 13 -7 6
-14 179 -124 228 -147 8 -3 29 -15 45 -25 51 -33 204 -106 335 -161 69 -28
140 -58 158 -66 18 -8 41 -14 52 -14 10 0 21 -4 25 -9 3 -5 20 -12 38 -16 17
-4 50 -12 72 -20 87 -28 223 -63 295 -75 25 -4 70 -13 100 -19 369 -72 884
-72 1270 0 30 5 82 14 114 20 32 5 67 14 77 19 10 6 28 10 41 10 21 0 62 11
153 42 17 5 44 13 60 18 48 13 98 31 128 46 16 8 35 14 44 14 8 0 27 6 41 14
15 8 52 24 82 36 70 28 155 66 200 90 128 66 239 128 288 161 24 16 46 29 49
29 3 0 22 13 43 30 21 16 41 30 44 30 7 0 192 138 240 180 17 14 50 43 75 64
82 71 295 289 356 366 33 41 66 81 73 89 7 8 21 26 30 40 9 14 34 51 57 81 47
65 43 59 143 225 116 194 197 365 276 583 32 89 38 109 45 142 4 19 13 45 19
57 7 12 12 31 12 43 0 12 6 42 14 68 8 26 22 83 31 127 10 44 24 107 31 141 8
33 14 75 14 92 0 18 8 74 17 124 21 118 24 769 3 883 -6 39 -16 102 -20 140
-4 39 -12 90 -18 115 -6 25 -16 70 -22 100 -29 147 -45 214 -66 275 -8 23 -14
50 -14 61 0 11 -6 28 -14 39 -7 11 -16 34 -19 50 -5 28 -27 95 -46 140 -5 11
-16 40 -26 65 -9 25 -25 63 -35 85 -10 22 -30 67 -45 100 -33 75 -87 181 -114
226 -11 19 -25 43 -31 54 -6 11 -18 32 -28 47 -9 15 -37 60 -61 100 -25 40
-48 77 -53 83 -4 5 -42 57 -84 115 -42 58 -91 121 -108 140 -17 20 -56 65 -86
100 -97 114 -287 299 -395 385 -27 22 -52 42 -55 45 -19 20 -112 89 -206 151
-138 93 -145 97 -169 109 -11 6 -33 19 -50 30 -41 27 -350 180 -363 180 -6 0
-23 6 -39 14 -53 27 -90 42 -213 86 -19 7 -48 15 -65 17 -16 3 -35 9 -41 14
-6 5 -31 13 -55 19 -107 23 -146 32 -178 42 -19 6 -60 14 -90 19 -31 4 -87 12
-126 18 -176 26 -264 33 -460 36 -115 2 -239 0 -275 -5z m485 -190 c77 -6 165
-15 195 -21 30 -6 84 -14 120 -19 36 -4 78 -13 93 -19 16 -6 43 -11 60 -11 18
-1 43 -7 57 -15 14 -8 37 -14 52 -15 15 0 42 -6 60 -14 56 -23 102 -38 133
-44 17 -2 39 -11 50 -18 11 -8 29 -14 40 -14 11 0 29 -7 39 -15 11 -8 26 -15
33 -15 23 0 296 -131 408 -195 33 -19 67 -38 75 -41 8 -4 31 -20 51 -36 20
-15 39 -28 43 -28 11 0 292 -202 306 -221 3 -3 43 -39 90 -79 97 -83 269 -256
341 -345 72 -88 229 -293 229 -300 0 -6 41 -66 51 -75 3 -3 9 -12 12 -20 4 -8
16 -28 27 -45 11 -16 24 -39 30 -50 6 -11 19 -33 29 -50 17 -27 140 -269 155
-305 3 -8 10 -22 14 -30 26 -46 42 -84 42 -98 0 -9 7 -26 15 -36 8 -11 15 -28
15 -38 0 -16 8 -37 45 -123 7 -16 16 -41 18 -55 5 -24 10 -42 37 -120 7 -19
15 -53 19 -75 4 -22 12 -56 18 -75 18 -58 36 -133 40 -170 2 -19 10 -69 18
-110 43 -226 54 -610 26 -865 -11 -91 -16 -132 -40 -305 -9 -61 -25 -131 -47
-201 -8 -26 -14 -56 -14 -68 0 -11 -6 -35 -14 -53 -7 -18 -19 -53 -25 -78 -23
-90 -41 -145 -67 -205 -7 -16 -22 -55 -34 -85 -12 -30 -32 -77 -45 -105 -12
-27 -25 -57 -29 -65 -3 -8 -10 -22 -15 -30 -5 -8 -12 -22 -15 -30 -3 -8 -10
-23 -16 -32 -22 -39 -30 -54 -45 -83 -24 -49 -58 -106 -103 -173 -23 -35 -42
-66 -42 -68 0 -8 -174 -235 -221 -289 -53 -60 -257 -266 -317 -319 -111 -98
-276 -226 -291 -226 -5 0 -11 -3 -13 -7 -3 -9 -55 -46 -78 -56 -8 -4 -28 -16
-45 -27 -16 -11 -39 -24 -50 -30 -11 -6 -33 -19 -50 -30 -16 -10 -66 -38 -110
-60 -44 -23 -100 -52 -124 -66 -24 -13 -48 -24 -53 -24 -4 0 -36 -13 -70 -28
-62 -28 -103 -45 -183 -74 -84 -31 -111 -40 -145 -48 -19 -4 -48 -13 -65 -18
-73 -25 -211 -59 -291 -72 -34 -5 -74 -14 -88 -20 -15 -5 -48 -10 -74 -10 -26
0 -87 -7 -137 -15 -64 -11 -171 -15 -370 -15 -295 0 -323 2 -685 59 -30 5 -68
14 -83 20 -16 6 -40 11 -55 11 -24 0 -74 13 -157 42 -16 6 -46 13 -65 16 -19
2 -44 11 -55 18 -11 8 -29 14 -41 14 -12 0 -35 6 -51 14 -15 8 -48 22 -73 31
-25 10 -61 24 -80 33 -19 8 -48 21 -65 28 -66 28 -183 86 -240 119 -33 19 -69
39 -80 44 -11 5 -36 20 -55 33 -19 13 -42 27 -50 31 -41 20 -130 80 -225 151
-337 251 -651 601 -842 937 -13 21 -34 58 -47 82 -13 23 -41 76 -61 117 -35
72 -44 91 -78 170 -8 19 -22 51 -30 70 -26 59 -45 113 -63 170 -9 30 -23 70
-30 88 -8 18 -14 42 -14 53 0 11 -5 30 -12 42 -6 12 -15 42 -19 67 -4 25 -12
63 -18 85 -62 248 -87 478 -85 815 1 286 20 499 56 650 6 25 13 59 15 75 2 17
10 54 18 83 8 28 22 77 30 107 34 126 48 172 61 203 8 18 14 40 14 50 0 9 7
26 15 36 8 11 15 28 15 37 0 10 6 30 14 46 7 15 21 45 30 66 36 83 47 107 111
237 37 74 75 149 86 165 10 17 23 39 29 50 6 11 19 34 30 50 11 17 23 37 27
45 3 8 9 17 12 20 10 9 51 69 51 75 0 3 5 11 10 18 6 7 47 62 92 122 45 61 84
112 88 115 4 3 39 42 78 87 101 115 174 188 272 274 47 40 90 78 96 84 6 6 47
37 90 70 43 33 81 63 84 66 6 9 190 133 210 142 8 4 29 16 45 27 17 11 39 24
50 30 11 6 34 19 50 30 17 11 37 22 45 26 8 3 22 9 30 14 56 33 253 122 340
155 42 16 64 24 150 55 19 6 51 16 70 20 19 4 49 13 65 18 55 19 140 41 170
45 17 2 50 9 75 15 125 30 199 39 480 61 109 8 162 7 395 -9z"/>
<path d="M6874 6295 c-14 -21 -15 -40 -10 -105 6 -63 5 -80 -6 -81 -7 -1 -43
0 -80 1 -65 2 -67 1 -74 -25 -4 -15 -4 -50 0 -80 8 -71 -3 -80 -92 -73 -96 8
-107 2 -107 -58 l0 -49 -83 3 c-64 3 -89 0 -107 -12 l-25 -16 0 -1318 c0
-1012 3 -1321 12 -1330 9 -9 280 -12 1158 -12 l1146 0 29 -30 c16 -16 35 -30
44 -30 8 0 22 -6 30 -13 9 -7 43 -22 76 -32 84 -28 367 -29 405 -2 13 9 34 17
46 17 12 0 27 7 34 15 7 8 17 15 22 15 6 0 27 13 48 30 l38 30 1153 2 1154 3
3 1329 c2 1256 1 1329 -15 1343 -13 10 -44 13 -113 11 l-95 -3 -3 45 c-2 25
-8 50 -13 55 -6 6 -47 10 -92 10 l-82 0 -5 85 -5 85 -78 1 c-43 0 -82 5 -86
10 -5 5 -4 42 1 82 8 61 7 77 -6 97 -20 30 -46 31 -281 10 -88 -8 -189 -15
-225 -15 -36 0 -100 -7 -143 -15 -43 -8 -100 -15 -125 -15 -26 0 -63 -5 -82
-10 -19 -6 -64 -15 -100 -20 -68 -9 -132 -22 -215 -45 -64 -17 -130 -34 -175
-45 -38 -9 -87 -26 -137 -47 -17 -7 -38 -13 -46 -13 -9 0 -28 -6 -44 -14 -15
-8 -59 -29 -98 -46 -38 -18 -77 -36 -85 -41 -8 -5 -22 -12 -30 -16 -8 -4 -33
-18 -55 -32 -22 -14 -44 -28 -50 -31 -43 -22 -127 -85 -158 -119 -20 -23 -44
-41 -52 -41 -9 0 -35 19 -59 43 -104 105 -314 220 -563 311 -90 32 -110 38
-143 45 -19 4 -45 13 -57 19 -12 7 -34 12 -49 12 -14 0 -47 6 -73 14 -67 21
-141 38 -181 43 -19 2 -73 10 -120 18 -148 24 -251 37 -380 45 -69 5 -179 14
-245 19 -197 17 -232 15 -251 -14z m451 -110 c77 -8 165 -17 195 -19 72 -4
213 -24 270 -38 25 -6 70 -14 101 -18 30 -4 65 -12 77 -19 11 -6 35 -11 52
-11 17 0 47 -7 67 -15 19 -8 47 -15 62 -15 14 -1 37 -7 51 -15 14 -8 36 -14
50 -15 15 0 31 -5 37 -11 6 -6 26 -14 44 -19 83 -21 269 -102 344 -151 17 -10
36 -22 44 -26 38 -18 115 -74 163 -119 l53 -49 6 -1085 c3 -597 9 -1100 14
-1117 11 -51 -18 -43 -82 22 -46 46 -167 128 -233 158 -8 4 -22 11 -30 16 -8
5 -22 12 -30 15 -8 3 -22 10 -30 15 -23 14 -130 59 -190 80 -19 7 -51 17 -70
21 -19 4 -48 13 -65 18 -70 25 -139 42 -169 42 -17 1 -49 7 -71 15 -22 8 -62
15 -90 15 -27 0 -81 6 -120 14 -93 19 -432 28 -630 18 -88 -5 -164 -7 -170 -5
-12 4 -14 2305 -2 2314 12 9 193 0 352 -16z m3670 16 c5 -9 8 -2311 3 -2317
-2 -1 -80 2 -173 7 -189 10 -523 3 -600 -12 -27 -6 -86 -14 -130 -19 -121 -13
-193 -28 -363 -76 -31 -9 -74 -22 -94 -30 -95 -35 -125 -47 -153 -59 -16 -7
-37 -16 -45 -19 -8 -3 -22 -10 -30 -14 -43 -25 -59 -33 -100 -54 -50 -25 -178
-119 -227 -167 -45 -42 -68 -42 -58 2 5 17 11 519 14 1114 l6 1081 25 27 c27
29 165 137 190 148 8 4 29 16 45 27 28 18 35 22 68 35 6 3 19 9 27 14 8 5 22
12 30 15 8 3 22 10 30 14 25 15 84 40 105 45 11 3 45 15 75 27 30 12 69 26 85
30 17 5 62 18 100 30 39 11 88 23 110 26 22 3 57 12 78 20 20 8 51 14 67 14
17 0 56 6 88 14 75 19 191 35 331 46 63 5 128 12 145 16 17 4 93 10 171 14 77
4 148 8 157 8 9 1 19 -2 23 -7z m-4128 -1296 l1 -1110 354 3 c229 2 381 -1
433 -8 44 -6 118 -15 165 -19 151 -14 393 -68 487 -108 17 -7 36 -13 42 -13 6
0 27 -7 48 -16 21 -9 49 -21 63 -26 49 -19 160 -71 222 -104 34 -18 49 -44 41
-73 -7 -26 -28 -22 -28 5 0 12 -8 20 -22 22 -12 2 -27 10 -33 18 -7 8 -20 14
-29 14 -10 0 -26 7 -37 15 -10 8 -25 15 -32 15 -8 0 -28 6 -45 14 -18 8 -66
24 -107 36 -41 12 -86 27 -100 32 -14 6 -47 14 -75 18 -63 10 -158 27 -255 46
-43 8 -173 16 -305 20 -303 7 -582 -11 -765 -52 -36 -8 -75 -14 -87 -14 l-23
0 -2 1183 c-2 650 1 1190 5 1200 6 14 17 17 45 15 l37 -3 2 -1110z m4317 1106
c4 -5 6 -544 6 -1198 1 -1123 0 -1188 -17 -1192 -9 -2 -49 4 -88 12 -181 41
-475 61 -780 52 -133 -3 -248 -11 -290 -20 -38 -8 -81 -15 -94 -15 -22 0 -123
-20 -206 -41 -22 -6 -60 -15 -85 -21 -25 -6 -49 -14 -55 -18 -5 -4 -25 -11
-43 -15 -18 -4 -45 -13 -60 -21 -15 -8 -31 -14 -36 -14 -22 0 -145 -66 -146
-77 0 -21 -30 -14 -30 6 0 36 121 110 260 160 36 13 69 28 75 33 5 4 16 8 25
8 8 0 27 6 41 14 14 7 43 16 64 20 20 4 45 11 54 16 9 4 43 13 76 20 33 6 94
18 135 27 41 8 109 19 150 23 41 4 120 13 174 20 70 9 201 11 438 8 187 -3
341 -1 344 3 2 5 4 503 4 1107 0 604 3 1101 6 1105 11 10 72 8 78 -2z m-4496
-167 l23 -6 -1 -1152 -1 -1151 43 1 c41 0 81 6 278 40 47 8 104 14 128 14 24
0 105 7 180 16 286 34 644 0 1047 -100 126 -30 150 -37 160 -45 5 -5 26 -11
45 -15 46 -9 85 -39 77 -60 -8 -20 -43 -21 -51 -1 -3 10 -19 15 -44 15 -23 0
-45 6 -52 15 -7 9 -29 15 -51 15 -21 0 -50 5 -66 11 -48 20 -185 41 -443 71
-136 15 -536 -2 -695 -31 -77 -13 -215 -30 -330 -40 -49 -5 -108 -13 -130 -19
-22 -6 -74 -12 -115 -14 l-75 -3 -3 1214 c-2 965 0 1216 10 1223 16 9 35 10
66 2z m4656 0 c14 -6 16 -123 16 -1226 l0 -1220 -77 7 c-43 4 -105 13 -138 21
-33 7 -83 14 -110 14 -28 0 -82 7 -120 15 -39 8 -95 15 -125 15 -30 0 -75 5
-100 11 -122 28 -547 47 -690 30 -250 -29 -386 -50 -433 -67 -20 -8 -50 -14
-65 -14 -16 0 -37 -7 -48 -15 -10 -8 -29 -15 -42 -15 -12 0 -34 -7 -47 -16
-27 -18 -75 -12 -75 9 0 16 73 57 102 57 13 0 28 4 34 9 5 6 29 15 54 21 203
52 277 69 345 80 33 5 83 14 110 19 28 6 136 18 240 27 198 18 193 18 625 -16
63 -5 131 -14 150 -19 19 -6 55 -11 80 -11 25 0 72 -7 105 -15 33 -8 77 -14
98 -15 l37 0 0 1154 c0 914 3 1155 13 1159 18 8 43 8 61 1z m-4834 -1310 c0
-664 2 -1209 5 -1212 3 -3 477 -4 1053 -3 l1049 2 79 -47 c43 -26 86 -53 95
-61 8 -7 27 -13 40 -13 14 0 30 -5 37 -12 17 -17 217 -17 233 0 7 6 28 12 45
12 18 0 39 7 48 15 8 8 17 15 20 15 4 0 28 15 54 33 26 17 58 38 71 45 20 12
206 14 1060 12 570 -1 1042 -2 1048 -1 10 1 13 253 15 1209 l3 1207 65 0 65 0
0 -1250 0 -1250 -1119 -3 -1120 -2 -25 -24 c-70 -65 -224 -117 -346 -115 -124
1 -244 42 -340 115 l-31 24 -1108 0 c-610 0 -1112 3 -1117 6 -10 6 -13 2462
-3 2488 5 12 21 16 65 16 l59 0 0 -1206z m2316 -1160 c33 -14 65 -29 73 -33 9
-4 31 1 53 11 37 18 39 18 78 -1 l40 -19 30 25 c25 20 33 23 45 13 12 -10 15
-9 15 4 0 23 95 23 104 0 10 -26 7 -44 -7 -38 -8 3 -28 -8 -44 -24 -42 -39
-146 -67 -246 -65 -57 0 -83 5 -96 17 -10 9 -32 16 -49 16 -21 0 -30 4 -27 13
7 17 -49 47 -74 40 -25 -6 -30 21 -6 31 8 3 15 12 15 21 0 22 29 19 96 -11z"/>
<path d="M7395 5721 c-11 -5 -29 -19 -40 -31 -20 -22 -20 -36 -20 -716 l0
-694 31 -30 30 -31 548 1 c617 1 583 -4 605 77 15 59 16 1005 0 1036 -6 12
-95 105 -198 207 l-186 185 -375 2 c-206 1 -384 -2 -395 -6z m691 -72 c4 -6 6
-75 5 -154 -2 -117 1 -144 14 -155 8 -7 15 -18 15 -24 0 -6 16 -20 34 -30 30
-16 53 -18 176 -15 l141 4 4 -477 c4 -460 3 -478 -15 -488 -29 -15 -1022 -14
-1038 2 -18 18 -17 1296 2 1320 12 16 43 18 327 21 173 1 317 3 321 5 4 1 10
-3 14 -9z m212 -170 c56 -56 102 -105 102 -109 0 -14 -23 -16 -120 -10 l-95 5
-7 100 c-6 97 -4 115 10 115 4 0 53 -45 110 -101z"/>
<path d="M7552 5288 c-13 -13 -15 -37 -6 -62 5 -14 33 -16 203 -16 202 0 221
3 221 40 0 9 -8 24 -18 33 -16 15 -45 17 -203 17 -131 0 -189 -4 -197 -12z"/>
<path d="M7553 5101 c-8 -7 -13 -25 -11 -40 l3 -26 391 -3 392 -2 15 24 c15
22 14 25 -7 45 -23 22 -26 22 -396 19 -301 -2 -376 -6 -387 -17z"/>
<path d="M7552 4918 c-15 -15 -16 -54 -2 -63 6 -4 185 -7 398 -7 l387 0 9 25
c7 18 6 30 -4 41 -11 14 -61 16 -394 16 -284 0 -385 -3 -394 -12z"/>
<path d="M7925 4740 l-380 -5 0 -35 0 -35 389 -3 c407 -2 420 -1 414 41 -6 40
-26 42 -423 37z"/>
<path d="M7549 4546 c-14 -15 -11 -52 5 -66 20 -16 746 -16 776 0 23 12 27 58
6 66 -26 10 -777 9 -787 0z"/>
<path d="M10708 5185 c-6 -13 -25 -29 -42 -35 -30 -11 -30 -12 -11 -25 11 -8
24 -18 29 -24 4 -5 17 -18 27 -30 25 -28 45 -26 53 4 4 14 18 31 31 37 32 14
32 34 0 42 -15 4 -27 16 -31 31 -8 33 -41 33 -56 0z"/>
<path d="M10497 5134 c-4 -4 -7 -22 -7 -40 0 -67 -50 -153 -89 -154 -7 0 -30
-10 -50 -22 l-36 -22 35 -11 c87 -26 131 -72 145 -153 4 -23 11 -42 15 -42 15
0 40 43 40 70 1 52 93 119 163 120 46 0 31 32 -23 49 -25 8 -58 21 -75 29 -33
15 -65 69 -65 107 0 27 -41 81 -53 69z"/>
<path d="M9730 5105 c-14 -8 -34 -15 -45 -15 -11 0 -29 -7 -39 -15 -11 -8 -26
-15 -33 -15 -46 0 -263 -186 -263 -224 0 -7 -5 -17 -11 -23 -26 -26 -49 -118
-49 -193 0 -129 39 -213 148 -318 l75 -73 -23 -57 c-26 -64 -87 -162 -101
-162 -5 0 -9 -7 -9 -16 0 -41 184 21 285 96 77 57 87 61 129 49 46 -13 195 -7
256 11 49 13 130 49 130 57 0 2 -26 31 -57 63 -32 33 -65 70 -75 82 l-16 23
-38 -20 c-60 -32 -174 -28 -246 8 -30 15 -73 46 -95 67 -37 37 -46 52 -84 133
-17 37 -17 157 0 193 7 16 21 45 30 64 20 44 86 111 130 133 61 30 160 51 188
38 13 -6 34 -11 46 -11 84 -1 237 -150 237 -230 0 -10 5 -22 10 -25 17 -10 11
-97 -10 -153 -11 -29 -20 -56 -20 -60 0 -4 17 -16 38 -27 20 -10 58 -41 84
-68 54 -58 67 -57 100 5 57 110 74 221 43 282 -8 15 -15 34 -15 40 0 25 -59
74 -116 95 -32 13 -67 29 -76 38 -16 14 -16 17 0 39 10 13 28 24 42 24 14 0
32 5 40 10 13 9 9 16 -20 41 -40 34 -150 89 -229 113 -71 21 -304 22 -341 1z
m-275 -439 c-5 -31 -2 -52 10 -76 9 -17 14 -34 11 -37 -13 -13 -35 9 -49 52
-16 45 -16 48 5 76 12 16 23 29 25 29 3 0 1 -20 -2 -44z m19 -158 c9 -36 7
-48 -8 -48 -12 0 -46 40 -46 54 0 4 19 11 41 15 4 0 9 -9 13 -21z m59 -93 c1
-5 -6 -11 -15 -13 -11 -2 -18 3 -18 13 0 17 30 18 33 0z m134 -122 c12 -10 22
-21 23 -25 0 -13 -39 -48 -52 -48 -17 1 -51 48 -43 60 6 9 -45 64 -68 74 -9 3
-8 7 2 14 13 9 76 -25 138 -75z"/>
<path d="M9835 4931 c-77 -19 -165 -89 -195 -157 -28 -61 -27 -175 1 -229 28
-53 64 -90 119 -123 39 -23 56 -26 125 -26 64 0 89 5 122 23 41 22 43 22 68 4
14 -10 35 -35 45 -55 11 -20 49 -68 84 -105 35 -37 76 -82 92 -99 55 -60 102
-67 144 -22 40 43 22 72 -100 170 -25 20 -65 55 -88 77 -24 23 -51 41 -61 41
-18 0 -81 56 -81 72 0 5 10 28 22 51 17 32 22 59 22 112 0 75 -17 122 -69 183
-49 58 -177 101 -250 83z m107 -68 c73 -28 122 -74 142 -135 18 -50 18 -57 3
-108 -17 -57 -68 -130 -92 -130 -7 0 -18 -7 -25 -15 -9 -11 -32 -15 -84 -15
-61 1 -77 5 -111 28 -22 15 -52 45 -67 67 -23 34 -27 50 -28 108 0 54 5 75 24
105 30 47 61 73 111 94 52 21 76 21 127 1z"/>
<path d="M9784 4786 c-46 -39 -72 -99 -54 -121 22 -26 40 -18 40 18 0 39 27
68 83 92 47 20 50 45 4 45 -23 0 -45 -10 -73 -34z"/>
<path d="M10677 4723 c-2 -5 -7 -21 -11 -36 -5 -20 -17 -33 -43 -43 -38 -16
-36 -26 9 -48 12 -6 27 -26 33 -44 12 -41 28 -41 54 2 12 18 35 39 51 46 38
16 38 37 0 45 -21 5 -37 18 -53 46 -22 38 -32 46 -40 32z"/>
</g>
</svg>
